<?xml version="1.0" encoding="UTF-8"?>
<svg width="22px" height="22px" viewBox="0 0 22 22" version="1.1" xmlns="http://www.w3.org/2000/svg" xmlns:xlink="http://www.w3.org/1999/xlink">
    <title>Menu Bar Icon</title>
    <g id="Menu-Bar-Icon" stroke="none" stroke-width="1" fill="none" fill-rule="evenodd">
        <g id="Path" transform="translate(2.000000, 3.000000)" fill="#000000">
            <path d="M8.73901717,16 C8.72141362,16 8.70384411,16 8.68630866,16 C-0.151590148,15.9875474 -0.390541314,10.741011 0.187844785,9.13656385 C0.2190985,9.0498655 0.255459859,8.96199245 0.296360302,8.87308941 C0.258213223,9.55823723 0.303786733,10.4410973 0.614960761,11.3169357 C1.34132556,13.3613823 3.51692961,15.0218376 8.04154876,15.3813815 C12.5661682,15.7409253 15.6491999,14.0559257 16.5838683,11.8419949 C17.1594898,10.4785315 17.1393995,9.72888231 17.1337495,9.65135709 C17.2388005,9.90130114 17.3168588,10.1516368 17.3596504,10.4004785 C17.3801524,10.5196983 17.6489556,15.8504846 9.11369703,15.9965694 C8.98713,15.9987358 8.86224097,15.9998743 8.73901717,16 Z M8.692744,14.6783552 C8.49398793,14.6779353 8.29146409,14.6731024 8.08513202,14.6635685 C5.47550223,14.5429835 2.25255239,13.6522389 1.03336009,11.0755594 C0.681573203,10.3320817 0.514174231,9.48502991 0.47997182,8.51752829 C1.13412204,7.36625235 2.3961827,6.08152715 3.16893997,4.95257061 C3.2418749,4.84601613 3.29781119,4.72214858 3.34168972,4.58642013 C3.088067,6.32208526 4.0953019,7.24014499 5.82751901,8.12543215 C6.92661739,8.68714976 9.62055889,9.09958404 11.3522764,9.31767274 C10.2521225,11.1497648 9.172843,12.7681265 9.12243071,12.8061895 C9.02544092,12.8794202 11.1372373,12.489666 11.1372373,12.489666 C11.1372373,12.489666 12.2639859,10.8563907 12.9388945,9.49825386 L16.9151011,10.1912788 L16.3833853,8.68329791 C16.3833853,8.68329791 14.762439,8.32762029 13.489695,8.08237665 C13.9608773,6.49608314 13.8803845,5.54098403 13.7738034,5.08832566 C14.3110267,6.1470808 16.3905761,7.88743306 17.1322683,9.64781595 C16.756767,11.3531058 14.1439461,14.6891407 8.692744,14.6783552 Z M12.1995963,7.86456249 C12.151028,7.85942315 12.1098942,7.85620707 12.0773589,7.85521592 C4.55718872,7.62616331 3.52672706,4.6967243 3.4091927,4.32801904 C3.56192086,3.59923262 3.49390448,2.66240953 3.7878223,2.16324178 C4.20154355,1.4606117 5.76025065,-0.142783133 8.52096465,0.0102285938 C14.8613494,0.361643127 13.4193776,3.57958078 13.6586652,4.77522418 C13.4726181,5.47902152 12.8890621,6.64057294 12.1995963,7.86456249 Z"></path>
        </g>
    </g>
</svg>